<mxfile host="app.diagrams.net" agent="Mozilla/5.0 (Windows NT 10.0; Win64; x64) AppleWebKit/537.36 (KHTML, like Gecko) Chrome/136.0.0.0 Safari/537.36" version="27.1.1">
  <diagram name="PÃ¡gina-1" id="6d7ulqh9seJyZbLi-dq8">
    <mxGraphModel dx="786" dy="1856" grid="1" gridSize="10" guides="1" tooltips="1" connect="1" arrows="1" fold="1" page="1" pageScale="1" pageWidth="827" pageHeight="1169" background="light-dark(#FFFFFF,#FFFFFF)" math="0" shadow="0">
      <root>
        <mxCell id="0" />
        <mxCell id="1" parent="0" />
        <mxCell id="OtZj47ZQHY37xgnC0t1V-15" value="" style="rounded=0;whiteSpace=wrap;html=1;fillColor=light-dark(#FFFFFF,#FFFFFF);" vertex="1" parent="1">
          <mxGeometry y="-40" width="640" height="520" as="geometry" />
        </mxCell>
        <mxCell id="OtZj47ZQHY37xgnC0t1V-8" style="edgeStyle=orthogonalEdgeStyle;rounded=0;orthogonalLoop=1;jettySize=auto;html=1;entryX=0;entryY=0.5;entryDx=0;entryDy=0;fillColor=#1ba1e2;strokeColor=#006EAF;strokeWidth=3;" edge="1" parent="1" source="OtZj47ZQHY37xgnC0t1V-1" target="OtZj47ZQHY37xgnC0t1V-2">
          <mxGeometry relative="1" as="geometry" />
        </mxCell>
        <mxCell id="OtZj47ZQHY37xgnC0t1V-1" value="Integration&lt;br&gt;Simulator" style="rounded=1;whiteSpace=wrap;html=1;fillColor=#1ba1e2;strokeColor=#006EAF;fontColor=#ffffff;strokeWidth=3;" vertex="1" parent="1">
          <mxGeometry x="70" y="140" width="120" height="60" as="geometry" />
        </mxCell>
        <mxCell id="OtZj47ZQHY37xgnC0t1V-9" style="edgeStyle=orthogonalEdgeStyle;rounded=0;orthogonalLoop=1;jettySize=auto;html=1;entryX=0.5;entryY=0;entryDx=0;entryDy=0;fillColor=#1ba1e2;strokeColor=#006EAF;strokeWidth=3;" edge="1" parent="1" source="OtZj47ZQHY37xgnC0t1V-2" target="OtZj47ZQHY37xgnC0t1V-3">
          <mxGeometry relative="1" as="geometry" />
        </mxCell>
        <mxCell id="OtZj47ZQHY37xgnC0t1V-11" style="edgeStyle=orthogonalEdgeStyle;rounded=0;orthogonalLoop=1;jettySize=auto;html=1;fillColor=#1ba1e2;strokeColor=#006EAF;strokeWidth=3;" edge="1" parent="1" source="OtZj47ZQHY37xgnC0t1V-2" target="OtZj47ZQHY37xgnC0t1V-6">
          <mxGeometry relative="1" as="geometry" />
        </mxCell>
        <mxCell id="OtZj47ZQHY37xgnC0t1V-2" value="Order Service" style="rounded=1;whiteSpace=wrap;html=1;fillColor=#1ba1e2;strokeColor=#006EAF;fontColor=#ffffff;strokeWidth=3;" vertex="1" parent="1">
          <mxGeometry x="250" y="140" width="120" height="60" as="geometry" />
        </mxCell>
        <mxCell id="OtZj47ZQHY37xgnC0t1V-10" style="edgeStyle=orthogonalEdgeStyle;rounded=0;orthogonalLoop=1;jettySize=auto;html=1;entryX=0;entryY=0.5;entryDx=0;entryDy=0;fillColor=#1ba1e2;strokeColor=#006EAF;strokeWidth=3;" edge="1" parent="1" source="OtZj47ZQHY37xgnC0t1V-3" target="OtZj47ZQHY37xgnC0t1V-7">
          <mxGeometry relative="1" as="geometry" />
        </mxCell>
        <mxCell id="OtZj47ZQHY37xgnC0t1V-3" value="Pricing Service" style="rounded=1;whiteSpace=wrap;html=1;fillColor=#1ba1e2;strokeColor=#006EAF;fontColor=#ffffff;strokeWidth=3;" vertex="1" parent="1">
          <mxGeometry x="250" y="260" width="120" height="60" as="geometry" />
        </mxCell>
        <mxCell id="OtZj47ZQHY37xgnC0t1V-4" value="Notification Service" style="rounded=1;whiteSpace=wrap;html=1;fillColor=#1ba1e2;strokeColor=#006EAF;fontColor=#ffffff;strokeWidth=3;" vertex="1" parent="1">
          <mxGeometry x="40" y="360" width="540" height="40" as="geometry" />
        </mxCell>
        <mxCell id="OtZj47ZQHY37xgnC0t1V-5" value="Log Collector Service" style="rounded=1;whiteSpace=wrap;html=1;fillColor=#1ba1e2;strokeColor=#006EAF;fontColor=#ffffff;strokeWidth=3;" vertex="1" parent="1">
          <mxGeometry x="40" y="400" width="540" height="40" as="geometry" />
        </mxCell>
        <mxCell id="OtZj47ZQHY37xgnC0t1V-6" value="Audit&lt;br&gt;Service" style="rounded=1;whiteSpace=wrap;html=1;fillColor=#1ba1e2;strokeColor=#006EAF;fontColor=#ffffff;strokeWidth=3;" vertex="1" parent="1">
          <mxGeometry x="430" y="140" width="120" height="60" as="geometry" />
        </mxCell>
        <mxCell id="OtZj47ZQHY37xgnC0t1V-7" value="External Cotation &lt;br&gt;GW" style="rounded=1;whiteSpace=wrap;html=1;fillColor=#1ba1e2;strokeColor=#006EAF;fontColor=#ffffff;strokeWidth=3;" vertex="1" parent="1">
          <mxGeometry x="430" y="260" width="120" height="60" as="geometry" />
        </mxCell>
        <UserObject label="&lt;p style=&quot;forced-color-adjust: none; box-shadow: none !important; color: rgb(62, 62, 62); font-family: Consolas; font-size: 13.3333px; font-style: normal; font-variant-ligatures: normal; font-variant-caps: normal; font-weight: 400; letter-spacing: normal; orphans: 2; text-align: left; text-indent: 0px; text-transform: none; widows: 2; word-spacing: 0px; -webkit-text-stroke-width: 0px; white-space: pre; text-decoration-thickness: initial; text-decoration-style: initial; text-decoration-color: initial; margin: 0px;&quot;&gt;&lt;span data-mx-given-colors=&quot;{&amp;quot;color&amp;quot;:&amp;quot;rgb(217, 232, 247)&amp;quot;}&quot; style=&quot;forced-color-adjust: none; box-shadow: none !important; color: light-dark(rgb(217, 232, 247), rgb(29, 42, 55));&quot;&gt;order.service.url=&lt;/span&gt;&lt;span data-mx-given-colors=&quot;{&amp;quot;color&amp;quot;:&amp;quot;rgb(23, 198, 163)&amp;quot;}&quot; style=&quot;forced-color-adjust: none; box-shadow: none !important; color: light-dark(rgb(23, 198, 163), rgb(0, 135, 105));&quot;&gt;http://localhost:8081/orders&lt;/span&gt;&lt;/p&gt;&lt;p style=&quot;forced-color-adjust: none; box-shadow: none !important; color: rgb(62, 62, 62); font-family: Consolas; font-size: 13.3333px; font-style: normal; font-variant-ligatures: normal; font-variant-caps: normal; font-weight: 400; letter-spacing: normal; orphans: 2; text-align: left; text-indent: 0px; text-transform: none; widows: 2; word-spacing: 0px; -webkit-text-stroke-width: 0px; white-space: pre; text-decoration-thickness: initial; text-decoration-style: initial; text-decoration-color: initial; margin: 0px;&quot;&gt;&lt;span data-mx-given-colors=&quot;{&amp;quot;color&amp;quot;:&amp;quot;rgb(217, 232, 247)&amp;quot;}&quot; style=&quot;forced-color-adjust: none; box-shadow: none !important; color: light-dark(rgb(217, 232, 247), rgb(29, 42, 55));&quot;&gt;pricing.service.url=&lt;/span&gt;&lt;span data-mx-given-colors=&quot;{&amp;quot;color&amp;quot;:&amp;quot;rgb(23, 198, 163)&amp;quot;}&quot; style=&quot;forced-color-adjust: none; box-shadow: none !important; color: light-dark(rgb(23, 198, 163), rgb(0, 135, 105));&quot;&gt;http://localhost:8082/price&lt;/span&gt;&lt;/p&gt;&lt;p style=&quot;forced-color-adjust: none; box-shadow: none !important; color: rgb(62, 62, 62); font-family: Consolas; font-size: 13.3333px; font-style: normal; font-variant-ligatures: normal; font-variant-caps: normal; font-weight: 400; letter-spacing: normal; orphans: 2; text-align: left; text-indent: 0px; text-transform: none; widows: 2; word-spacing: 0px; -webkit-text-stroke-width: 0px; white-space: pre; text-decoration-thickness: initial; text-decoration-style: initial; text-decoration-color: initial; margin: 0px;&quot;&gt;&lt;span data-mx-given-colors=&quot;{&amp;quot;color&amp;quot;:&amp;quot;rgb(217, 232, 247)&amp;quot;}&quot; style=&quot;forced-color-adjust: none; box-shadow: none !important; color: light-dark(rgb(217, 232, 247), rgb(29, 42, 55));&quot;&gt;audit.service.url=&lt;/span&gt;&lt;span data-mx-given-colors=&quot;{&amp;quot;color&amp;quot;:&amp;quot;rgb(23, 198, 163)&amp;quot;}&quot; style=&quot;forced-color-adjust: none; box-shadow: none !important; color: light-dark(rgb(23, 198, 163), rgb(0, 135, 105));&quot;&gt;http://localhost:8083/audit&lt;/span&gt;&lt;/p&gt;&lt;p style=&quot;forced-color-adjust: none; box-shadow: none !important; color: rgb(62, 62, 62); font-family: Consolas; font-size: 13.3333px; font-style: normal; font-variant-ligatures: normal; font-variant-caps: normal; font-weight: 400; letter-spacing: normal; orphans: 2; text-align: left; text-indent: 0px; text-transform: none; widows: 2; word-spacing: 0px; -webkit-text-stroke-width: 0px; white-space: pre; text-decoration-thickness: initial; text-decoration-style: initial; text-decoration-color: initial; margin: 0px;&quot;&gt;&lt;span data-mx-given-colors=&quot;{&amp;quot;color&amp;quot;:&amp;quot;rgb(217, 232, 247)&amp;quot;}&quot; style=&quot;forced-color-adjust: none; box-shadow: none !important; color: light-dark(rgb(217, 232, 247), rgb(29, 42, 55));&quot;&gt;notification.service.url=&lt;/span&gt;&lt;span data-mx-given-colors=&quot;{&amp;quot;color&amp;quot;:&amp;quot;rgb(23, 198, 163)&amp;quot;}&quot; style=&quot;forced-color-adjust: none; box-shadow: none !important; color: light-dark(rgb(23, 198, 163), rgb(0, 135, 105));&quot;&gt;http://localhost:8084/notify&lt;/span&gt;&lt;/p&gt;&lt;p style=&quot;forced-color-adjust: none; box-shadow: none !important; color: rgb(62, 62, 62); font-family: Consolas; font-size: 13.3333px; font-style: normal; font-variant-ligatures: normal; font-variant-caps: normal; font-weight: 400; letter-spacing: normal; orphans: 2; text-align: left; text-indent: 0px; text-transform: none; widows: 2; word-spacing: 0px; -webkit-text-stroke-width: 0px; white-space: pre; text-decoration-thickness: initial; text-decoration-style: initial; text-decoration-color: initial; margin: 0px;&quot;&gt;&lt;span data-mx-given-colors=&quot;{&amp;quot;color&amp;quot;:&amp;quot;rgb(217, 232, 247)&amp;quot;}&quot; style=&quot;forced-color-adjust: none; box-shadow: none !important; color: light-dark(rgb(217, 232, 247), rgb(29, 42, 55));&quot;&gt;external.price.url=&lt;/span&gt;&lt;span data-mx-given-colors=&quot;{&amp;quot;color&amp;quot;:&amp;quot;rgb(23, 198, 163)&amp;quot;}&quot; style=&quot;forced-color-adjust: none; box-shadow: none !important; color: light-dark(rgb(23, 198, 163), rgb(0, 135, 105));&quot;&gt;http://localhost:8085/external-price&lt;/span&gt;&lt;/p&gt;&lt;p style=&quot;forced-color-adjust: none; box-shadow: none !important; color: rgb(62, 62, 62); font-family: Consolas; font-size: 13.3333px; font-style: normal; font-variant-ligatures: normal; font-variant-caps: normal; font-weight: 400; letter-spacing: normal; orphans: 2; text-align: left; text-indent: 0px; text-transform: none; widows: 2; word-spacing: 0px; -webkit-text-stroke-width: 0px; white-space: pre; text-decoration-thickness: initial; text-decoration-style: initial; text-decoration-color: initial; margin: 0px;&quot;&gt;&lt;span data-mx-given-colors=&quot;{&amp;quot;color&amp;quot;:&amp;quot;rgb(217, 232, 247)&amp;quot;}&quot; style=&quot;forced-color-adjust: none; box-shadow: none !important; color: light-dark(rgb(217, 232, 247), rgb(29, 42, 55));&quot;&gt;log.collector.url=&lt;/span&gt;&lt;span data-mx-given-colors=&quot;{&amp;quot;color&amp;quot;:&amp;quot;rgb(23, 198, 163)&amp;quot;}&quot; style=&quot;forced-color-adjust: none; box-shadow: none !important; color: light-dark(rgb(23, 198, 163), rgb(0, 135, 105));&quot;&gt;http://localhost:8090/logs&lt;/span&gt;&lt;/p&gt;" link="&lt;p style=&quot;forced-color-adjust: none; box-shadow: none !important; color: rgb(62, 62, 62); font-family: Consolas; font-size: 13.3333px; font-style: normal; font-variant-ligatures: normal; font-variant-caps: normal; font-weight: 400; letter-spacing: normal; orphans: 2; text-align: left; text-indent: 0px; text-transform: none; widows: 2; word-spacing: 0px; -webkit-text-stroke-width: 0px; white-space: pre; text-decoration-thickness: initial; text-decoration-style: initial; text-decoration-color: initial; margin: 0px;&quot;&gt;&lt;span data-mx-given-colors=&quot;{&amp;quot;color&amp;quot;:&amp;quot;rgb(217, 232, 247)&amp;quot;}&quot; style=&quot;forced-color-adjust: none; box-shadow: none !important; color: light-dark(rgb(217, 232, 247), rgb(29, 42, 55));&quot;&gt;order.service.url=&lt;/span&gt;&lt;span data-mx-given-colors=&quot;{&amp;quot;color&amp;quot;:&amp;quot;rgb(23, 198, 163)&amp;quot;}&quot; style=&quot;forced-color-adjust: none; box-shadow: none !important; color: light-dark(rgb(23, 198, 163), rgb(0, 135, 105));&quot;&gt;http://localhost:8081/orders&lt;/span&gt;&lt;/p&gt;&lt;p style=&quot;forced-color-adjust: none; box-shadow: none !important; color: rgb(62, 62, 62); font-family: Consolas; font-size: 13.3333px; font-style: normal; font-variant-ligatures: normal; font-variant-caps: normal; font-weight: 400; letter-spacing: normal; orphans: 2; text-align: left; text-indent: 0px; text-transform: none; widows: 2; word-spacing: 0px; -webkit-text-stroke-width: 0px; white-space: pre; text-decoration-thickness: initial; text-decoration-style: initial; text-decoration-color: initial; margin: 0px;&quot;&gt;&lt;span data-mx-given-colors=&quot;{&amp;quot;color&amp;quot;:&amp;quot;rgb(217, 232, 247)&amp;quot;}&quot; style=&quot;forced-color-adjust: none; box-shadow: none !important; color: light-dark(rgb(217, 232, 247), rgb(29, 42, 55));&quot;&gt;pricing.service.url=&lt;/span&gt;&lt;span data-mx-given-colors=&quot;{&amp;quot;color&amp;quot;:&amp;quot;rgb(23, 198, 163)&amp;quot;}&quot; style=&quot;forced-color-adjust: none; box-shadow: none !important; color: light-dark(rgb(23, 198, 163), rgb(0, 135, 105));&quot;&gt;http://localhost:8082/price&lt;/span&gt;&lt;/p&gt;&lt;p style=&quot;forced-color-adjust: none; box-shadow: none !important; color: rgb(62, 62, 62); font-family: Consolas; font-size: 13.3333px; font-style: normal; font-variant-ligatures: normal; font-variant-caps: normal; font-weight: 400; letter-spacing: normal; orphans: 2; text-align: left; text-indent: 0px; text-transform: none; widows: 2; word-spacing: 0px; -webkit-text-stroke-width: 0px; white-space: pre; text-decoration-thickness: initial; text-decoration-style: initial; text-decoration-color: initial; margin: 0px;&quot;&gt;&lt;span data-mx-given-colors=&quot;{&amp;quot;color&amp;quot;:&amp;quot;rgb(217, 232, 247)&amp;quot;}&quot; style=&quot;forced-color-adjust: none; box-shadow: none !important; color: light-dark(rgb(217, 232, 247), rgb(29, 42, 55));&quot;&gt;audit.service.url=&lt;/span&gt;&lt;span data-mx-given-colors=&quot;{&amp;quot;color&amp;quot;:&amp;quot;rgb(23, 198, 163)&amp;quot;}&quot; style=&quot;forced-color-adjust: none; box-shadow: none !important; color: light-dark(rgb(23, 198, 163), rgb(0, 135, 105));&quot;&gt;http://localhost:8083/audit&lt;/span&gt;&lt;/p&gt;&lt;p style=&quot;forced-color-adjust: none; box-shadow: none !important; color: rgb(62, 62, 62); font-family: Consolas; font-size: 13.3333px; font-style: normal; font-variant-ligatures: normal; font-variant-caps: normal; font-weight: 400; letter-spacing: normal; orphans: 2; text-align: left; text-indent: 0px; text-transform: none; widows: 2; word-spacing: 0px; -webkit-text-stroke-width: 0px; white-space: pre; text-decoration-thickness: initial; text-decoration-style: initial; text-decoration-color: initial; margin: 0px;&quot;&gt;&lt;span data-mx-given-colors=&quot;{&amp;quot;color&amp;quot;:&amp;quot;rgb(217, 232, 247)&amp;quot;}&quot; style=&quot;forced-color-adjust: none; box-shadow: none !important; color: light-dark(rgb(217, 232, 247), rgb(29, 42, 55));&quot;&gt;notification.service.url=&lt;/span&gt;&lt;span data-mx-given-colors=&quot;{&amp;quot;color&amp;quot;:&amp;quot;rgb(23, 198, 163)&amp;quot;}&quot; style=&quot;forced-color-adjust: none; box-shadow: none !important; color: light-dark(rgb(23, 198, 163), rgb(0, 135, 105));&quot;&gt;http://localhost:8084/notify&lt;/span&gt;&lt;/p&gt;&lt;p style=&quot;forced-color-adjust: none; box-shadow: none !important; color: rgb(62, 62, 62); font-family: Consolas; font-size: 13.3333px; font-style: normal; font-variant-ligatures: normal; font-variant-caps: normal; font-weight: 400; letter-spacing: normal; orphans: 2; text-align: left; text-indent: 0px; text-transform: none; widows: 2; word-spacing: 0px; -webkit-text-stroke-width: 0px; white-space: pre; text-decoration-thickness: initial; text-decoration-style: initial; text-decoration-color: initial; margin: 0px;&quot;&gt;&lt;span data-mx-given-colors=&quot;{&amp;quot;color&amp;quot;:&amp;quot;rgb(217, 232, 247)&amp;quot;}&quot; style=&quot;forced-color-adjust: none; box-shadow: none !important; color: light-dark(rgb(217, 232, 247), rgb(29, 42, 55));&quot;&gt;external.price.url=&lt;/span&gt;&lt;span data-mx-given-colors=&quot;{&amp;quot;color&amp;quot;:&amp;quot;rgb(23, 198, 163)&amp;quot;}&quot; style=&quot;forced-color-adjust: none; box-shadow: none !important; color: light-dark(rgb(23, 198, 163), rgb(0, 135, 105));&quot;&gt;http://localhost:8085/external-price&lt;/span&gt;&lt;/p&gt;&lt;p style=&quot;forced-color-adjust: none; box-shadow: none !important; color: rgb(62, 62, 62); font-family: Consolas; font-size: 13.3333px; font-style: normal; font-variant-ligatures: normal; font-variant-caps: normal; font-weight: 400; letter-spacing: normal; orphans: 2; text-align: left; text-indent: 0px; text-transform: none; widows: 2; word-spacing: 0px; -webkit-text-stroke-width: 0px; white-space: pre; text-decoration-thickness: initial; text-decoration-style: initial; text-decoration-color: initial; margin: 0px;&quot;&gt;&lt;span data-mx-given-colors=&quot;{&amp;quot;color&amp;quot;:&amp;quot;rgb(217, 232, 247)&amp;quot;}&quot; style=&quot;forced-color-adjust: none; box-shadow: none !important; color: light-dark(rgb(217, 232, 247), rgb(29, 42, 55));&quot;&gt;log.collector.url=&lt;/span&gt;&lt;span data-mx-given-colors=&quot;{&amp;quot;color&amp;quot;:&amp;quot;rgb(23, 198, 163)&amp;quot;}&quot; style=&quot;forced-color-adjust: none; box-shadow: none !important; color: light-dark(rgb(23, 198, 163), rgb(0, 135, 105));&quot;&gt;http://localhost:8090/logs&lt;/span&gt;&lt;/p&gt;" id="OtZj47ZQHY37xgnC0t1V-13">
          <mxCell style="text;whiteSpace=wrap;html=1;" vertex="1" parent="1">
            <mxGeometry x="40" width="440" height="120" as="geometry" />
          </mxCell>
        </UserObject>
      </root>
    </mxGraphModel>
  </diagram>
</mxfile>
